<svg id="Layer_1" data-name="Layer 1" xmlns="http://www.w3.org/2000/svg" width="8.5in" height="8.5in" viewBox="0 0 612 612"><title>icons</title><circle cx="303" cy="308.6" r="281.2" fill="#31353e"/><path d="M191.1,215.8c26.6-38.4,68.9-59.3,119.1-58.5,65.9,1.3,108.2,61.5,113,68.5a6.5,6.5,0,0,1-1.7,9.2,5.8,5.8,0,0,1-3.5,1.3c-2.2,0-4.4-.9-5.2-3.1s-41.9-61.5-102.1-62.4c-46.2-1.3-84.6,17.4-108.6,52.3a6.6,6.6,0,0,1-10.9-7.4ZM226,161.7c3.5-2.6,34-25.7,80.7-24.9a122.6,122.6,0,0,1,77.6,29.2,5.6,5.6,0,0,0,4.4,1.7,7,7,0,0,0,4.8-2.2,6.3,6.3,0,0,0-.4-9.2c-10.5-9.6-40.1-31.4-85.9-32.7-51-1.3-85.5,24.4-89.4,27.5a6,6,0,0,0-.9,9.2A6.4,6.4,0,0,0,226,161.7Zm36.6,93.4a6.5,6.5,0,1,0-8.7-9.6c-10.5,9.6-16.6,20.1-19.6,25.3-22.2,39.7-5.2,79.4-1.3,86.8,8.3,17,25.7,40.1,62.8,51.9a110.2,110.2,0,0,0,33.6,5.2c26.6,0,51-9.2,65.4-21.4a6.5,6.5,0,1,0-8.3-10c-14.4,12.2-48.9,25.7-86.4,14-32.7-10.5-48-30.1-55-44.9-1.7-3.9-18.3-40.1.9-75C248.2,272.5,253.9,263.4,262.6,255.1ZM226.8,397.7l-1.7,1.3-3.5,2.6ZM395.2,234.6c-17-28.8-51.5-45.8-94.7-45.8-26.2,0-49.7,8.7-69.4,25.7-21.4,18.8-35.8,45.8-39.7,75-5.2,41.4,5.2,81.1,30.1,112.5l3.5-2.6,6.5-5.7c-22.7-28.4-32.3-65-27.5-102.5,3.5-25.7,16.1-50.2,35.3-66.7a88.4,88.4,0,0,1,60.6-22.2c38.4.4,68.9,14.8,83.3,39.7,16.6,27.5,22.7,48.4,11.3,84.2-7,22.7-44.5,42.3-73.7,39.3s-45.8-19.2-50.6-47.5c-1.7-9.2,1.7-20.5,8.7-29.7s14.4-13.5,22.2-14.4a33.3,33.3,0,0,1,11.3.9c7,2.2,23.6,8.3,24.9,20.5v.9c1.3,10.9,0,15.7-3.9,16.6-1.7-.4-6.5-5.7-8.7-8.3-6.1-7-12.7-14.4-21.4-11.8-3.9,1.3-7.4,4.8-9.6,10-3.1,7.4-3.9,19.2,1.3,28.8,8.7,17,32.7,21.4,51,15.7a50.1,50.1,0,0,0,23.1-16.6c14.4-18.8,10.5-41.9,8.7-48.4-3.9-17-15.7-32.7-32.7-43.6-14-8.7-30.1-13.1-45.4-12.2a68.7,68.7,0,0,0-26.2,7c-3.1,1.7-4.8,5.7-3.1,8.7s5.7,4.8,8.7,3.1a53.8,53.8,0,0,1,21.4-5.7c12.7-.9,26.2,3.1,38,10,14,8.7,23.6,21.8,27,35.3,1.3,5.2,4.4,23.1-6.5,37.5a32.5,32.5,0,0,1-16.6,12.2c-12.7,3.9-29.7,1.3-35.3-9.2-3.9-7.9-1.7-17.9.4-20.1,1.7.9,5.7,5.2,7.9,7.4,6.1,7,12.7,14.4,21.4,12.7,17.4-3.9,15.3-23.6,14.4-31v-.9c-1.7-14.4-14-25.7-34.5-31.8a35.4,35.4,0,0,0-16.6-1.3c-11.3,1.3-22.7,8.7-31,19.6s-13.1,27-10.9,39.7c5.7,34.5,27.5,54.5,61.9,58.5,32.3,3.5,77.6-16.6,87.7-48C420.5,288.7,413.1,264.7,395.2,234.6Zm7.4,180.6c-7.4,4.4-45.4,26.6-89.4,21.8a134.4,134.4,0,0,1-66.7-27,6.5,6.5,0,0,0-7.9,10.5,145.5,145.5,0,0,0,73.3,30.1c4.8.4,9.2.9,14,.9,42.3,0,76.8-20.1,84.2-24.4,3.1-1.7,3.9-6.1,2.2-9.2S405.7,413.4,402.6,415.2Zm-27.5,43.2c-14.8,7.4-38.8,16.1-67.6,14.4a133.8,133.8,0,0,1-41-9.6,6.6,6.6,0,0,0-5.2,12.2,135.5,135.5,0,0,0,45.4,10.9c3.1,0,5.7.4,8.7.4A144.5,144.5,0,0,0,380.8,471a7.1,7.1,0,0,0,3.1-8.7C382.6,457.9,378.6,456.6,375.1,458.4ZM238.6,446.6a155.7,155.7,0,0,1-30.1-29.7,135.5,135.5,0,0,1-24.4-63.3,6.6,6.6,0,1,0-13.1,1.7,150.5,150.5,0,0,0,27,69.4A157.3,157.3,0,0,0,230.8,457a7,7,0,0,0,3.9,1.3,6.2,6.2,0,0,0,5.2-2.6C242.5,452.7,241.7,448.8,238.6,446.6ZM173.2,329.7a6.5,6.5,0,0,0,4.8-7.9,94,94,0,0,1-2.6-34.9c1.3-13.1,6.1-26.2,12.7-37.5a6.7,6.7,0,0,0-11.3-7,108.8,108.8,0,0,0-14.8,42.8,101.6,101.6,0,0,0,3.1,39.7,6.4,6.4,0,0,0,6.1,4.8A1.9,1.9,0,0,0,173.2,329.7Zm268.3-64.6a6.5,6.5,0,0,0-12.7,3.1,127.4,127.4,0,0,1-14,91.6,6.1,6.1,0,0,0,2.6,8.7,8.1,8.1,0,0,0,3.1.9,6.8,6.8,0,0,0,5.7-3.5,137.7,137.7,0,0,0,15.3-100.8Z" fill="#ba76b1"/></svg>