<svg id="Layer_1" data-name="Layer 1" xmlns="http://www.w3.org/2000/svg" width="8.5in" height="8.5in" viewBox="0 0 612 612"><title>icons</title><circle cx="308.5" cy="308.6" r="281.2" fill="#ba76b1"/><path d="M455.5,402.9l-79.7-38.5a8.2,8.2,0,0,0-8.9,1.1c-15.9,13.2-29.2,31.9-35.3,41.1-72-25.7-103.2-80-111.5-97,20.4-18.1,27-37.3,27.3-38.2a8.2,8.2,0,0,0-.3-5.9l-34.4-79.7a8.1,8.1,0,0,0-7.9-5l-37.1,1.4a8.3,8.3,0,0,0-4.1,1.3c-47.9,30.5-42.5,88.5-42.2,90.9a8.2,8.2,0,0,0,.4,1.8c9.2,26.6,20.7,57.1,36.7,81.8,64,98.6,155,123.9,163.8,126.1,17.6,6.7,34.7,10.1,50.9,10.1,51,0,78.1-33.8,81.4-40.5,4.3-8.9,5.4-35.3,5.6-43.2A8.2,8.2,0,0,0,455.5,402.9Zm-15.7,43.5c-.2.3-21.3,31.4-66.6,31.4-14.3,0-29.5-3.1-45.4-9.2l-1-.3c-.9-.2-92.2-23.5-154.4-119.2-14.9-22.9-25.8-51.8-34.6-77.2-.5-6.9-2-49.6,32.9-73.3l29.2-1.1,30.8,71.3A88.7,88.7,0,0,1,205,300.8a8.2,8.2,0,0,0-2.6,9.4c1.3,3.4,32.1,82.4,130.2,114.2a8.2,8.2,0,0,0,9.6-3.6c.1-.2,13.9-23,31.4-39.1l69.9,33.8C442.9,428.8,441.4,443.2,439.8,446.5Z" fill="#fefbf9"/><path d="M208.2,282.6a8.2,8.2,0,0,0,5.8-14.1c-17.5-17.2-29.4-55.9-29.5-56.3a8.2,8.2,0,0,0-15.8,4.8c.5,1.8,13.2,43.1,33.7,63.3A8.2,8.2,0,0,0,208.2,282.6Z" fill="#fefbf9"/><path d="M362.2,405.6a8.2,8.2,0,0,0,.6,11.6c.8.7,19.3,17,58.8,28.6a8.2,8.2,0,0,0,4.6-15.8c-35.5-10.4-52.3-24.9-52.5-25A8.2,8.2,0,0,0,362.2,405.6Z" fill="#fefbf9"/><path d="M309.7,343a30.9,30.9,0,1,0-30.9-30.9A31,31,0,0,0,309.7,343Zm0-45.3a14.4,14.4,0,1,1-14.4,14.4A14.4,14.4,0,0,1,309.7,297.7Z" fill="#fefbf9"/><path d="M357.1,261.9a73.6,73.6,0,0,1,22.2,51.9c.1,4.5,3.7,8.6,8.2,8.6h.1c4.6,0,8.2-4.3,8.1-8.8a90.5,90.5,0,0,0-27.2-63.7,89,89,0,0,0-64-25.4,8.3,8.3,0,0,0-8.1,8.4,8.4,8.4,0,0,0,8.4,8.2A73.2,73.2,0,0,1,357.1,261.9Z" fill="#fefbf9"/><path d="M422.4,196.4a168.8,168.8,0,0,0-120.5-48,8.2,8.2,0,0,0-8.1,8.3,8.3,8.3,0,0,0,8.4,8c40.8-.5,79.5,14.6,108.8,43.1A151.1,151.1,0,0,1,457.2,315c.1,4.5,3.7,7.4,8.2,7.4h.1c4.6,0,8.2-3.1,8.1-7.6C473.1,269.5,454.9,227.9,422.4,196.4Z" fill="#fefbf9"/></svg>