<svg id="Layer_1" data-name="Layer 1" xmlns="http://www.w3.org/2000/svg" width="8.5in" height="8.5in" viewBox="0 0 612 612"><title>icons</title><circle cx="306.7" cy="308.6" r="281.2" fill="#ba76b1"/><circle cx="311.3" cy="479.4" r="18" fill="#fefbf9"/><circle cx="360.2" cy="448.3" r="18" fill="#fefbf9"/><circle cx="430" cy="311.4" r="17.9" fill="#fefbf9"/><circle cx="399.6" cy="266.8" r="18" fill="#fefbf9"/><circle cx="360.2" cy="174.8" r="18" fill="#fefbf9"/><circle cx="311.3" cy="144.9" r="18" fill="#fefbf9"/><circle cx="189.2" cy="183.8" r="18" fill="#fefbf9"/><circle cx="199" cy="315.5" r="18" fill="#fefbf9"/><circle cx="199" cy="389.1" r="17.9" fill="#fefbf9"/><circle cx="251.6" cy="443.2" r="18" fill="#fefbf9"/><path d="M280.7,318.3a17.6,17.6,0,0,1,25.3,0,17.8,17.8,0,0,1,0,25.2,17.9,17.9,0,0,1-25.3-25.2Z" fill="#fefbf9"/><polygon points="319.2 482.3 303.7 482.3 303.7 429.2 236.6 362.3 236.6 276.3 303.3 209.9 303.3 143.6 318.8 143.6 318.8 216.4 252.3 282.9 252.3 355.8 319.2 422.7 319.2 482.3" fill="#fefbf9"/><polygon points="316.9 431.4 305.8 420.5 348.2 378 348.2 313.8 308.2 273.6 352.6 229.4 352.6 174.8 368 174.8 368 235.9 330.4 273.6 364 307.1 364 384.6 316.9 431.4" fill="#fefbf9"/><rect x="312.3" y="323.2" width="15.6" height="77.96" transform="translate(-162.3 332.4) rotate(-45)" fill="#fefbf9"/><polygon points="238.8 281.7 181.4 224.2 181.4 183.8 197.1 183.8 197.1 217.7 250 270.5 238.8 281.7" fill="#fefbf9"/><rect x="347.1" y="280.8" width="61.5" height="15.61" transform="translate(-94 347.3) rotate(-44.5)" fill="#fefbf9"/><rect x="213.7" y="304.2" width="15.9" height="64.35" transform="translate(-173.1 256.2) rotate(-45.1)" fill="#fefbf9"/><polygon points="364.8 453.9 353.7 442.7 392.1 404.5 392.1 338.2 424.4 305.6 435.6 316.8 407.6 344.6 407.6 410.9 364.8 453.9" fill="#fefbf9"/><rect x="217.3" y="379.7" width="15.9" height="74.59" transform="translate(-228.9 281.4) rotate(-45)" fill="#fefbf9"/></svg>